<svg width="32" height="32" viewBox="0 0 32 32" fill="none" xmlns="http://www.w3.org/2000/svg">
  <defs>
    <linearGradient id="bg" x1="0" y1="0" x2="32" y2="32" gradientUnits="userSpaceOnUse">
      <stop stop-color="#ffe1e8"/>
      <stop offset="1" stop-color="#ff69b4"/>
    </linearGradient>
    <linearGradient id="gold" x1="16" y1="5" x2="16" y2="27" gradientUnits="userSpaceOnUse">
      <stop stop-color="#ffe27a"/>
      <stop offset="1" stop-color="#ffd700"/>
    </linearGradient>
  </defs>
  <rect x="1" y="1" width="30" height="30" rx="9" fill="url(#bg)"/>
  <rect x="1" y="1" width="30" height="30" rx="9" fill="none" stroke="#ffffff" stroke-opacity="0.55" stroke-width="1.2"/>
  <path d="M13.6 6.6a2.4 2.4 0 0 1 4.8 0V11h4.4a2.4 2.4 0 0 1 0 4.8h-4.4v9.6a2.4 2.4 0 0 1-4.8 0v-9.6H9.2a2.4 2.4 0 0 1 0-4.8h4.4z" fill="url(#gold)" stroke="#b07d00" stroke-width="0.6" stroke-linejoin="round"/>
  <circle cx="25" cy="8" r="1.6" fill="#fff6f8"/>
  <circle cx="7" cy="22" r="1.1" fill="#fff6f8"/>
</svg>
